<svg height="512" viewBox="0 0 64 64" width="512" xmlns="http://www.w3.org/2000/svg"><g id="Application-touch-hand-software-app"><rect fill="#46f8ff" height="46" rx="2" width="26" x="3" y="3"/><path d="m29 5v42a2.006 2.006 0 0 1 -2 2h-22a2.006 2.006 0 0 1 -2-2v-2h20a2.006 2.006 0 0 0 2-2v-40h2a2.006 2.006 0 0 1 2 2z" fill="#00d7df"/><rect fill="#ffde55" height="16" rx="2" width="26" x="35" y="3"/><path d="m61 5v12a2.006 2.006 0 0 1 -2 2h-22a2.006 2.006 0 0 1 -2-2v-2h20a2.006 2.006 0 0 0 2-2v-10h2a2.006 2.006 0 0 1 2 2z" fill="#ebbf00"/><path d="m24 3v2a2.006 2.006 0 0 1 -2 2h-12a2.006 2.006 0 0 1 -2-2v-2z" fill="#e0e0e2"/><path d="m24 3v2a2.006 2.006 0 0 1 -2 2h-4a2.006 2.006 0 0 0 2-2v-2z" fill="#c6c5ca"/><rect fill="#57a4ff" height="8" rx="4" width="18" x="7" y="11"/><path d="m25 15a3.995 3.995 0 0 1 -4 4h-10a3.992 3.992 0 0 1 -3.87-3h9.87a3.995 3.995 0 0 0 4-4 3.657 3.657 0 0 0 -.13-1h.13a4 4 0 0 1 4 4z" fill="#006df0"/><rect fill="#57a4ff" height="8" rx="4" width="18" x="7" y="23"/><path d="m25 27a3.995 3.995 0 0 1 -4 4h-10a3.992 3.992 0 0 1 -3.87-3h9.87a3.995 3.995 0 0 0 4-4 3.657 3.657 0 0 0 -.13-1h.13a4 4 0 0 1 4 4z" fill="#006df0"/><rect fill="#57a4ff" height="8" rx="4" width="18" x="7" y="35"/><path d="m25 39a3.995 3.995 0 0 1 -4 4h-10a3.992 3.992 0 0 1 -3.87-3h9.87a3.995 3.995 0 0 0 4-4 3.657 3.657 0 0 0 -.13-1h.13a4 4 0 0 1 4 4z" fill="#006df0"/><path d="m41 42v3.37a12 12 0 0 1 -2.01 6.65l-5.98 8.98h-17.02l-3.69-6.34a12.047 12.047 0 0 1 -.32-11.5l.13-.16 4.89-6v-17a2.772 2.772 0 0 1 .18-1 2.99 2.99 0 0 1 4.94-1.12 3.154 3.154 0 0 1 .55.75 3.011 3.011 0 0 1 .33 1.37v18a3 3 0 0 1 6 0v2a3 3 0 0 1 6 0v2a3 3 0 0 1 6 0z" fill="#ffdaaa"/><path d="m41 42.169v3.2a12 12 0 0 1 -2.01 6.65l-5.98 8.981h-17.02l-2.33-4h2.561a20.147 20.147 0 0 0 16.769-8.98 12 12 0 0 0 2.01-6.65v.63a3 3 0 0 1 3.22-2.992 3.116 3.116 0 0 1 2.78 3.161z" fill="#ffb655"/><path d="m38 38a3.932 3.932 0 0 0 -2.24.69 4 4 0 0 0 -3.76-2.69 3.906 3.906 0 0 0 -2 .56v-31.56a3.009 3.009 0 0 0 -3-3h-22a3.009 3.009 0 0 0 -3 3v42a3.009 3.009 0 0 0 3 3h4.76a13 13 0 0 0 1.68 5.17l3.69 6.33a1 1 0 0 0 .86.5h17.02a1.008 1.008 0 0 0 .83-.45l5.98-8.97a12.969 12.969 0 0 0 2.18-7.21v-3.37a4 4 0 0 0 -4-4zm-29-34h14v1a1 1 0 0 1 -1 1h-12a1 1 0 0 1 -1-1zm.7 44h-4.7a1 1 0 0 1 -1-1v-42a1 1 0 0 1 1-1h2v1a3.009 3.009 0 0 0 3 3h12a3.009 3.009 0 0 0 3-3v-1h2a1 1 0 0 1 1 1v29.56a3.851 3.851 0 0 0 -4 0v-3.57a4.409 4.409 0 0 0 .54-.46 4.988 4.988 0 0 0 -.54-7.52v-3.01a3.928 3.928 0 0 0 -.12-.92 5.659 5.659 0 0 0 .66-.55 5 5 0 0 0 -3.54-8.53h-10a5 5 0 0 0 0 10h5v2h-5a5 5 0 0 0 0 10h5v2h-5a4.984 4.984 0 0 0 -.45 9.95 13.029 13.029 0 0 0 -.85 4.05zm13.43-30.89a1.811 1.811 0 0 1 -.21.18 3.955 3.955 0 0 0 -6.36.71h-5.56a3 3 0 1 1 0-6h10a3.009 3.009 0 0 1 3 3 2.964 2.964 0 0 1 -.87 2.11zm-7.13 6.89v6h-5a3 3 0 1 1 0-6zm-5 18a3 3 0 1 1 0-6h5v.64l-4.36 5.36zm29 3.37a11.012 11.012 0 0 1 -1.84 6.1l-5.69 8.53h-15.9l-3.41-5.84a10.952 10.952 0 0 1 -.33-10.45l3.17-3.9v5.19h2v-25a2 2 0 0 1 4 0v25h2v-7a2 2 0 0 1 4 0v8h2v-6a2 2 0 0 1 4 0v8h2v-6a2 2 0 0 1 4 0z"/><path d="m59 2h-22a3 3 0 0 0 -3 3v12a3 3 0 0 0 3 3h22a3 3 0 0 0 3-3v-12a3 3 0 0 0 -3-3zm1 15a1 1 0 0 1 -1 1h-22a1 1 0 0 1 -1-1v-12a1 1 0 0 1 1-1h22a1 1 0 0 1 1 1z"/><path d="m42 6h16v2h-16z"/><path d="m42 10h16v2h-16z"/><path d="m42 14h16v2h-16z"/><path d="m38 6h2v2h-2z"/><path d="m38 10h2v2h-2z"/><path d="m38 14h2v2h-2z"/><path d="m47 28a3 3 0 0 1 -3 3h-12v2h12a5.006 5.006 0 0 0 5-5v-2h-2z"/><path d="m47 22h2v2h-2z"/></g></svg>