<?xml version="1.0" encoding="UTF-8" standalone="no"?>
<svg
   xmlns:dc="http://purl.org/dc/elements/1.1/"
   xmlns:cc="http://creativecommons.org/ns#"
   xmlns:rdf="http://www.w3.org/1999/02/22-rdf-syntax-ns#"
   xmlns:svg="http://www.w3.org/2000/svg"
   xmlns="http://www.w3.org/2000/svg"
   xmlns:sodipodi="http://sodipodi.sourceforge.net/DTD/sodipodi-0.dtd"
   xmlns:inkscape="http://www.inkscape.org/namespaces/inkscape"
   id="Capa_1"
   enable-background="new 0 0 512 512"
   height="512"
   viewBox="0 0 512 512"
   width="512"
   version="1.1"
   sodipodi:docname="brush.svg"
   inkscape:version="1.0.2 (e86c870879, 2021-01-15, custom)">
  <metadata
     id="metadata983">
    <rdf:RDF>
      <cc:Work
         rdf:about="">
        <dc:format>image/svg+xml</dc:format>
        <dc:type
           rdf:resource="http://purl.org/dc/dcmitype/StillImage" />
      </cc:Work>
    </rdf:RDF>
  </metadata>
  <defs
     id="defs981" />
  <sodipodi:namedview
     pagecolor="#ffffff"
     bordercolor="#666666"
     borderopacity="1"
     objecttolerance="10"
     gridtolerance="10"
     guidetolerance="10"
     inkscape:pageopacity="0"
     inkscape:pageshadow="2"
     inkscape:window-width="1920"
     inkscape:window-height="1017"
     id="namedview979"
     showgrid="false"
     inkscape:zoom="256"
     inkscape:cx="430.58495"
     inkscape:cy="70.970077"
     inkscape:window-x="-8"
     inkscape:window-y="-8"
     inkscape:window-maximized="1"
     inkscape:current-layer="Capa_1" />
  <g
     id="g976">
    <path
       d="M 504.919,7.081 C 499.632,1.795 492.342,-0.722 484.922,0.179 L 445.883,4.915 C 422.276,7.779 401.088,19.579 386.232,38.129 L 362.59,67.535 343.291,91.539 c -2.595,3.228 -2.082,7.949 1.146,10.545 3.228,2.596 7.948,2.082 10.544,-1.146 l 14.061,-17.489 59.51,59.509 -90.845,73.038 c -4.09,3.288 -6.599,8.18 -6.883,13.42 -0.284,5.241 1.681,10.375 5.393,14.087 l 47.031,47.031 c 1.819,1.819 2.821,4.239 2.821,6.812 0,2.573 -1.002,4.992 -2.821,6.812 L 370.281,317.125 194.878,141.72 207.845,128.753 c 3.756,-3.756 9.868,-3.756 13.624,0 l 47.03,47.031 c 3.475,3.476 8.198,5.42 13.088,5.42 0.332,0 0.665,-0.009 0.998,-0.027 5.241,-0.284 10.132,-2.793 13.421,-6.883 l 40.154,-49.943 c 2.595,-3.228 2.083,-7.949 -1.146,-10.545 -3.229,-2.596 -7.949,-2.082 -10.544,1.146 l -40.154,49.944 c -0.853,1.061 -1.959,1.272 -2.542,1.304 -0.578,0.03 -1.705,-0.06 -2.668,-1.021 l -47.03,-47.031 c -4.652,-4.653 -10.838,-7.215 -17.418,-7.215 -6.58,0 -12.766,2.562 -17.418,7.215 l -13.68,13.68 c -6.272,-2.955 -13.992,-1.862 -19.169,3.315 l -36.05,36.05 c -3.194,3.193 -4.953,7.439 -4.953,11.955 0,1.9 0.329,3.745 0.927,5.49 L 4.954,294.201 c -3.021,2.671 -4.824,6.514 -4.947,10.544 -0.124,4.03 1.441,7.977 4.292,10.828 l 138.695,138.695 c 3.604,3.603 8.915,5.091 13.869,3.878 l 28.852,-7.064 -7.064,28.853 c -1.211,4.951 0.275,10.264 3.878,13.868 l 13.9,13.9 c 2.746,2.746 6.508,4.299 10.383,4.298 0.147,0 0.295,-0.002 0.443,-0.007 4.03,-0.123 7.874,-1.926 10.545,-4.946 L 323.372,387.679 c 1.775,0.606 3.626,0.928 5.482,0.928 4.33,0 8.659,-1.648 11.955,-4.944 l 36.051,-36.051 c 5.177,-5.177 6.269,-12.897 3.314,-19.168 l 13.68,-13.68 c 9.605,-9.604 9.605,-25.231 0,-34.836 l -47.03,-47.031 c -0.962,-0.962 -1.053,-2.084 -1.021,-2.668 0.032,-0.583 0.243,-1.689 1.303,-2.542 l 97.36,-78.276 29.405,-23.641 c 18.557,-14.865 30.351,-36.048 33.214,-59.652 l 4.736,-39.039 c 0.9,-7.422 -1.615,-14.711 -6.902,-19.998 z m -298.128,489.772 -13.528,-13.528 7.148,-29.193 c 1.23,-5.025 -0.219,-10.21 -3.878,-13.869 -3.658,-3.658 -8.845,-5.109 -13.868,-3.877 l -29.193,7.147 -57.808,-57.808 23.099,-23.099 c 2.929,-2.929 2.929,-7.678 0,-10.607 -2.929,-2.929 -7.678,-2.929 -10.606,0 l -23.099,23.099 -69.91,-69.908 118.497,-104.802 21.843,21.843 -13.098,13.098 c -2.929,2.929 -2.929,7.678 0,10.607 1.464,1.464 3.384,2.197 5.303,2.197 1.919,0 3.839,-0.732 5.303,-2.197 l 13.098,-13.098 71.829,71.83 -71.375,71.375 c -2.929,2.929 -2.929,7.678 0,10.607 1.464,1.464 3.384,2.197 5.303,2.197 1.919,0 3.839,-0.732 5.303,-2.197 l 71.375,-71.375 30.634,30.634 -28.6,28.6 c -2.929,2.929 -2.929,7.678 0,10.607 1.464,1.464 3.384,2.197 5.303,2.197 1.919,0 3.839,-0.732 5.303,-2.197 l 28.6,-28.6 21.821,21.821 z m 159.462,-159.848 -36.051,36.051 c -0.744,0.743 -1.953,0.743 -2.697,0 L 138.945,184.495 c -0.461,-0.461 -0.558,-0.988 -0.558,-1.348 0,-0.36 0.097,-0.886 0.559,-1.348 l 36.05,-36.051 c 0.372,-0.372 0.86,-0.558 1.349,-0.558 0.488,0 0.977,0.186 1.349,0.557 l 188.56,188.56 c 0.743,0.745 0.743,1.954 -0.001,2.698 z M 496.93,25.272 492.194,64.311 c -2.389,19.689 -12.23,37.361 -27.711,49.759 -0.004,0.003 -0.008,0.006 -0.011,0.009 L 440.311,133.504 378.497,71.69 397.931,47.518 C 410.329,32.036 428,22.195 447.69,19.806 l 39.039,-4.736 c 2.816,-0.34 5.579,0.613 7.584,2.618 2.004,2.005 2.959,4.77 2.617,7.584 z"
       id="path966" />
    <path
       d="m 423.228,52.169 c -4.889,4.889 -7.581,11.389 -7.581,18.302 0,6.913 2.692,13.414 7.581,18.302 5.046,5.046 11.674,7.569 18.302,7.569 6.628,0 13.256,-2.523 18.302,-7.569 10.091,-10.091 10.091,-26.512 0,-36.604 -10.092,-10.092 -26.513,-10.092 -36.604,0 z m 25.998,25.998 c -4.243,4.243 -11.148,4.243 -15.392,0 -2.056,-2.055 -3.188,-4.788 -3.188,-7.695 0,-2.907 1.132,-5.64 3.188,-7.696 2.122,-2.122 4.909,-3.183 7.696,-3.183 2.787,0 5.574,1.061 7.695,3.183 4.244,4.243 4.244,11.147 10e-4,15.391 z"
       id="path968" />
    <path
       d="m 171.398,299.384 c -2.929,-2.929 -7.678,-2.929 -10.606,0 l -31.734,31.734 c -2.929,2.929 -2.929,7.678 0,10.606 1.464,1.464 3.384,2.197 5.303,2.197 1.919,0 3.839,-0.732 5.303,-2.197 l 31.734,-31.734 c 2.93,-2.928 2.93,-7.677 0,-10.606 z"
       id="path970" />
    <path
       d="m 229.663,395.43 -20.784,20.783 c -2.929,2.929 -2.929,7.678 0,10.606 1.464,1.465 3.384,2.197 5.303,2.197 1.919,0 3.839,-0.732 5.303,-2.197 l 20.784,-20.783 c 2.929,-2.929 2.929,-7.678 0,-10.606 -2.928,-2.929 -7.677,-2.928 -10.606,0 z"
       id="path972" />
    <path
       d="m 131.893,256.454 c -2.929,-2.929 -7.678,-2.929 -10.606,0 l -49.831,49.832 c -2.929,2.929 -2.929,7.678 0,10.606 1.464,1.464 3.384,2.197 5.303,2.197 1.919,0 3.839,-0.732 5.303,-2.197 l 49.831,-49.831 c 2.929,-2.93 2.929,-7.679 0,-10.607 z"
       id="path974" />
  </g>
  <path
     style="fill:#ffda44;stroke:none;stroke-width:1px;stroke-linecap:butt;stroke-linejoin:miter;stroke-opacity:1;fill-opacity:1"
     d="M 124.315,188.638 4.8981703,294.36939 l -0.9050967,0.69213 -0.3726869,0.42593 -0.5856508,0.74537 -0.7986147,1.27778 -0.4126176,0.57234 -0.2395844,0.49248 -0.3593766,0.73207 -0.33275616,0.87847 -0.31944589,1.01158 -0.30613564,1.13137 -0.0931717,0.54572 -0.10648196,0.70545 -0.02662049,0.9184 v 2.00985 l 0.31944588,1.99654 0.1464127,0.47917 0.2928254,0.98495 0.49247906,1.25117 0.4658586,0.89178 0.6987879,1.21124 0.5257547,0.7254 0.6455469,0.81193 1.8035382,1.85012 3.3129493,3.30819 134.7799006,134.7799 1.01304,0.80599 1.11059,0.77176 0.64,0.33883 1.02588,0.51764 1.38353,0.5553 1.28941,0.36706 1.60941,0.30117 0.96009,0.0881 0.76534,0.0133 0.9783,-0.0133 0.83854,-0.0932 0.87183,-0.12645 1.62385,-0.37269 1.11806,-0.2662 1.45081,-0.37269 25.51289,-6.23141 -7.14844,29.17609 -0.15468,0.77339 -0.15468,1.32583 -0.0228,1.76769 0.15625,1.54687 0.40625,1.79688 0.71875,2 0.75,1.42187 1.28125,1.875 1.78125,1.84375 3.10938,3.10938 10.79687,10.73437 0.48438,0.40625 1.375,0.95313 1.29687,0.6875 1.4375,0.64062 0.70313,0.21875 1.21875,0.32813 1.40625,0.21875 1.03125,0.0937 0.82812,-0.0156 1.21875,-0.0469 2.06361,-0.34574 2.05502,-0.68501 1.61309,-0.7734 1.72358,-1.08276 1.25953,-1.12695 1.12695,-1.18219 1.67938,-1.90035 L 323.372,387.679 311.59,378.357 206.791,496.853 l -13.528,-13.528 7.33435,-30.01431 0.0773,-0.46404 0.0553,-0.46404 0.0718,-0.67948 0.0221,-0.45299 0.0111,-0.53033 -0.006,-0.49719 -0.009,-0.43356 -0.0234,-0.32422 -0.0508,-0.48828 -0.11328,-0.86328 -0.082,-0.37891 -0.11719,-0.54296 -0.14843,-0.59375 -0.19141,-0.59375 -0.30078,-0.82422 -0.34375,-0.79688 -0.45703,-0.86719 -0.70313,-1.16406 -0.96094,-1.23437 -0.71875,-0.78907 -1.01562,-0.94531 -0.8125,-0.625 -0.42188,-0.32031 -1.08593,-0.65625 -1.50782,-0.73438 -1.63281,-0.55468 -2.19709,-0.43933 -1.4584,-0.11048 -1.62414,0.0663 -2.09922,0.3425 -3.16021,0.7582 -26.12175,6.42363 -57.808,-57.808 23.0526,-23.04551 0.67396,-0.76235 0.56348,-0.83969 0.3425,-0.66291 0.4088,-1.1601 0.19887,-0.96122 0.0552,-1.08276 -0.0663,-0.92808 -0.15468,-0.86179 -0.47508,-1.25953 -0.4309,-0.78445 -0.68501,-0.95017 -0.7292,-0.74025 -0.65187,-0.50824 -0.89493,-0.55242 -0.88388,-0.36461 -0.97227,-0.28726 -0.95018,-0.14363 h -1.03856 l -0.60767,0.0442 -0.57452,0.12153 -0.76235,0.23202 -0.62977,0.19887 -0.96122,0.51928 -0.58558,0.4309 -0.64081,0.51928 -0.56348,0.57452 L 85.058,375.118 15.148,305.21 133.645,200.408 Z"
     id="path1546" />
  <path
     style="fill:#ffda44;stroke:none;stroke-width:1px;stroke-linecap:butt;stroke-linejoin:miter;stroke-opacity:1;fill-opacity:1"
     d="m 155.488,222.251 10.606,10.607 -11.96122,11.96122 -1.33142,1.34233 -0.92808,0.7292 -1.06066,0.57453 -1.12695,0.41984 -1.12695,0.19887 -0.75131,0.0884 -2.01083,-0.22097 -1.43631,-0.55243 -1.138,-0.7071 -1.02752,-0.91703 -0.55413,-0.69673 -0.67187,-1.07812 -0.35938,-0.85938 -0.28125,-0.98437 -0.10937,-0.85938 -0.0312,-1 0.0781,-0.71875 0.3125,-1.25 0.34375,-0.875 0.42188,-0.82812 0.4375,-0.59375 0.71875,-0.78125 1,-1.01563 z"
     id="path1548" />
  <path
     id="path1550"
     style="fill:#ffda44;stroke:none;stroke-width:1px;stroke-linecap:butt;stroke-linejoin:miter;stroke-opacity:1;fill-opacity:1"
     d="M 126.28125 254.05664 L 125.5293 254.14453 L 124.40234 254.34375 L 123.27539 254.76367 L 122.21484 255.33789 L 121.28711 256.06641 L 119.95508 257.41016 L 84.458984 293.2793 L 72.470703 305.26367 L 71.470703 306.2793 L 70.751953 307.06055 L 70.314453 307.6543 L 69.892578 308.48242 L 69.548828 309.35742 L 69.236328 310.60742 L 69.158203 311.32617 L 69.189453 312.32617 L 69.298828 313.18555 L 69.580078 314.16992 L 69.939453 315.0293 L 70.611328 316.10742 L 71.166016 316.80469 L 72.193359 317.7207 L 73.332031 318.42773 L 74.767578 318.98047 L 76.779297 319.20117 L 77.529297 319.11328 L 78.65625 318.91406 L 79.783203 318.49414 L 80.84375 317.91992 L 81.771484 317.19141 L 83.103516 315.84766 L 95.064453 303.88672 L 130.76367 268.21484 L 131.80664 267.1582 L 132.52539 266.39258 L 133.03711 265.63086 L 133.41992 264.88086 L 133.79102 263.94531 L 134.05469 262.7168 L 134.0918 261.88867 L 134.08594 261.30859 L 134.04102 260.9043 L 133.9707 260.37891 L 133.89648 260.02539 L 133.74219 259.46484 L 133.59961 259.07227 L 133.24023 258.19727 L 132.83594 257.58594 L 132.49805 257.12305 L 132.18555 256.75195 L 131.89258 256.45312 L 131.53711 256.10352 L 130.86523 255.53711 L 129.72656 254.83008 L 128.29102 254.27734 L 126.28125 254.05664 z " />
  <path
     style="fill:#ffda44;stroke:none;stroke-width:1px;stroke-linecap:butt;stroke-linejoin:miter;stroke-opacity:1;fill-opacity:1"
     d="m 139.37443,341.99908 -11.11952,-10.19658 31.34175,-31.36258 1.33142,-1.34233 0.92808,-0.7292 1.06066,-0.57453 1.12695,-0.41984 1.12695,-0.19887 0.75131,-0.0884 2.01083,0.22097 1.43631,0.55243 1.138,0.7071 0.67208,0.56675 0.35544,0.35028 0.29168,0.29892 0.31323,0.37047 0.33738,0.46179 0.4048,0.61242 0.35938,0.875 0.1418,0.39253 0.15508,0.56059 0.0751,0.35402 0.0694,0.5249 0.0447,0.40418 0.006,0.58019 -0.0375,0.82801 -0.26278,1.2279 -0.37137,0.93577 -0.38321,0.75078 -0.51154,0.76144 -0.71875,0.76563 -1.04197,1.05691 z"
     id="path1554"
     sodipodi:nodetypes="ccccccccccccccccccccccccccccccccc" />
  <path
     style="fill:#ffd42a;stroke:none;stroke-width:1px;stroke-linecap:butt;stroke-linejoin:miter;stroke-opacity:1"
     d="m 141.96163,318.02224 10.606,10.607 -11.87283,12.08275 -1.39771,1.47492 -0.8397,0.58557 -1.1159,0.56348 -1.08275,0.36459 -1.138,0.22097 -0.8397,0.0221 -0.65251,-0.0471 -1.35832,-0.17391 -1.43631,-0.55243 -1.138,-0.7071 -1.02752,-0.91703 -0.55413,-0.69673 -0.67187,-1.07812 -0.35938,-0.85938 -0.28125,-0.98437 -0.10937,-0.85938 -0.0312,-1 0.0781,-0.71875 0.3125,-1.25 0.34375,-0.875 0.42188,-0.82812 0.4375,-0.59375 0.71875,-0.78125 1,-1.01563 z"
     id="path1556"
     sodipodi:nodetypes="cccccccccccccccccccccccccccc" />
  <path
     style="fill:#ffda44;stroke:none;stroke-width:1px;stroke-linecap:butt;stroke-linejoin:miter;stroke-opacity:1;fill-opacity:1"
     d="m 237.923,304.688 10.606,10.607 -70.22754,70.24952 -1.33694,1.36443 -0.91704,0.7071 -1.00541,0.58558 -1.19324,0.43089 -1.09381,0.19887 -0.8176,0.0553 -0.77403,-0.0383 -1.2368,-0.18266 -1.43631,-0.55243 -1.138,-0.7071 -1.02752,-0.91703 -0.55413,-0.69673 -0.67187,-1.07812 -0.35938,-0.85938 -0.28125,-0.98437 -0.10937,-0.85938 -0.0312,-1 0.0781,-0.71875 0.3125,-1.25 0.34375,-0.875 0.42188,-0.82812 0.4375,-0.59375 0.71875,-0.78125 1,-1.01563 z"
     id="path1561"
     sodipodi:nodetypes="cccccccccccccccccccccccccccc" />
  <path
     id="path1563"
     style="fill:#ffda44;stroke:none;stroke-width:1px;stroke-linecap:butt;stroke-linejoin:miter;stroke-opacity:1;fill-opacity:1"
     d="M 235.03125 392.73242 L 234.28125 392.82031 L 233.1543 393.01953 L 232.02734 393.43945 L 230.9668 394.01367 L 230.03711 394.74219 L 228.70703 396.08398 L 220.96094 404.02148 L 208.97461 416.00586 L 207.97461 417.02148 L 207.25586 417.80273 L 206.81836 418.39648 L 206.39648 419.22461 L 206.05273 420.09961 L 205.74023 421.34961 L 205.66211 422.06836 L 205.69141 423.06836 L 205.80078 423.92773 L 206.08203 424.91211 L 206.44141 425.77148 L 207.11328 426.84961 L 207.66797 427.54688 L 208.69531 428.46289 L 209.83398 429.16992 L 211.26953 429.72266 L 212.62891 429.89648 L 213.28125 429.94336 L 214.12109 429.92188 L 215.25781 429.70117 L 216.3418 429.33594 L 217.45703 428.77344 L 218.29688 428.1875 L 219.69531 426.71289 L 231.72266 414.82812 C 234.55585 412.45389 236.79488 409.38921 239.51562 406.89062 L 240.55859 405.83398 L 241.27734 405.06836 L 241.78906 404.30664 L 242.17188 403.55664 L 242.54297 402.61914 L 242.80469 401.39258 L 242.84375 400.56445 L 242.83789 399.98438 L 242.79297 399.58008 L 242.72266 399.05469 L 242.64844 398.70117 L 242.49219 398.14062 L 242.35156 397.74805 L 241.99219 396.87305 L 241.58594 396.25977 L 241.25 395.79883 L 240.93555 395.42773 L 240.64453 395.12891 L 240.28906 394.7793 L 239.61719 394.21289 L 238.47852 393.50586 L 237.04297 392.95312 L 235.03125 392.73242 z " />
  <path
     style="fill:#ffda44;stroke:none;stroke-width:1px;stroke-linecap:butt;stroke-linejoin:miter;stroke-opacity:1;fill-opacity:1"
     d="m 279.163,345.929 10.606,10.607 -27.49527,27.50592 -1.33694,1.36443 -0.91704,0.7071 -1.00541,0.58558 -1.19324,0.43089 -1.09381,0.19887 -0.8176,0.0553 -0.77403,-0.0383 -1.2368,-0.18266 -1.43631,-0.55243 -1.138,-0.7071 -1.02752,-0.91703 -0.55413,-0.69673 -0.67187,-1.07812 -0.35938,-0.85938 -0.28125,-0.98437 -0.10937,-0.85938 -0.0312,-1 0.0781,-0.71875 0.3125,-1.25 0.34375,-0.875 0.42188,-0.82812 0.4375,-0.59375 0.71875,-0.78125 1,-1.01563 z"
     id="path1567"
     sodipodi:nodetypes="cccccccccccccccccccccccccccc" />
  <path
     id="path1573"
     style="fill:#ffda44;fill-opacity:1;stroke:none;stroke-width:0.621586;stroke-opacity:1"
     d="m 441.39258,44.5 c -14.31744,0.05915 -25.8927,11.682442 -25.89258,26 0,14.359403 11.6406,26 26,26 14.3594,0 26,-11.640597 26,-26 0,-14.359403 -11.6406,-26 -26,-26 -0.0358,-7.4e-5 -0.0716,-7.4e-5 -0.10742,0 z m 0.0176,15.105468 c 6.11957,0.312067 10.97699,4.712462 10.97656,10.863282 -0.15582,6.11957 -4.51715,10.387153 -10.76172,10.855469 -6.08832,-0.187066 -10.84809,-4.731993 -10.97266,-10.882813 0.31207,-6.08832 4.607,-10.617621 10.75782,-10.835938 z"
     sodipodi:nodetypes="ccssscccccc" />
</svg>
