<svg xmlns="http://www.w3.org/2000/svg" xmlns:xlink="http://www.w3.org/1999/xlink" width="60" height="60" viewBox="0 0 60 60">
  <defs>
    <clipPath id="clip-choice">
      <rect width="60" height="60"/>
    </clipPath>
  </defs>
  <g id="choice" clip-path="url(#clip-choice)">
    <g id="Application-touch-hand-software-app" transform="translate(-2 -2)">
      <path id="Path_21" data-name="Path 21" d="M2,0H24a2,2,0,0,1,2,2V44a2,2,0,0,1-2,2H2a2,2,0,0,1-2-2V2A2,2,0,0,1,2,0Z" transform="translate(3 3)" fill="#03f" opacity="0.83"/>
      <path id="Path_1" data-name="Path 1" d="M29,5V47a2.006,2.006,0,0,1-2,2H5a2.006,2.006,0,0,1-2-2V45H23a2.006,2.006,0,0,0,2-2V3h2a2.006,2.006,0,0,1,2,2Z" fill="#0100fd" opacity="0.83"/>
      <path id="Path_20" data-name="Path 20" d="M2,0H24a2,2,0,0,1,2,2V14a2,2,0,0,1-2,2H2a2,2,0,0,1-2-2V2A2,2,0,0,1,2,0Z" transform="translate(35 3)" fill="#ffe60a"/>
      <path id="Path_2" data-name="Path 2" d="M61,5V17a2.006,2.006,0,0,1-2,2H37a2.006,2.006,0,0,1-2-2V15H55a2.006,2.006,0,0,0,2-2V3h2a2.006,2.006,0,0,1,2,2Z" fill="#ebbf00"/>
      <path id="Path_3" data-name="Path 3" d="M24,3V5a2.006,2.006,0,0,1-2,2H10A2.006,2.006,0,0,1,8,5V3Z" fill="#e0e0e2"/>
      <path id="Path_4" data-name="Path 4" d="M24,3V5a2.006,2.006,0,0,1-2,2H18a2.006,2.006,0,0,0,2-2V3Z" fill="#c6c5ca"/>
      <rect id="Rectangle_3" data-name="Rectangle 3" width="18" height="8" rx="4" transform="translate(7 11)" fill="#57a4ff"/>
      <path id="Path_5" data-name="Path 5" d="M25,15a4,4,0,0,1-4,4H11a3.992,3.992,0,0,1-3.87-3H17a3.995,3.995,0,0,0,4-4,3.657,3.657,0,0,0-.13-1H21A4,4,0,0,1,25,15Z" fill="#006df0"/>
      <rect id="Rectangle_4" data-name="Rectangle 4" width="18" height="8" rx="4" transform="translate(7 23)" fill="#57a4ff"/>
      <path id="Path_6" data-name="Path 6" d="M25,27a3.995,3.995,0,0,1-4,4H11a3.992,3.992,0,0,1-3.87-3H17a4,4,0,0,0,4-4,3.657,3.657,0,0,0-.13-1H21A4,4,0,0,1,25,27Z" fill="#006df0"/>
      <rect id="Rectangle_5" data-name="Rectangle 5" width="18" height="8" rx="4" transform="translate(7 35)" fill="#57a4ff"/>
      <path id="Path_7" data-name="Path 7" d="M25,39a3.995,3.995,0,0,1-4,4H11a3.992,3.992,0,0,1-3.87-3H17a3.995,3.995,0,0,0,4-4,3.657,3.657,0,0,0-.13-1H21A4,4,0,0,1,25,39Z" fill="#006df0"/>
      <path id="Path_8" data-name="Path 8" d="M41,42v3.37a12,12,0,0,1-2.011,6.651L33.01,61H15.99L12.3,54.66a12.047,12.047,0,0,1-.32-11.5l.13-.16L17,37V20a2.772,2.772,0,0,1,.18-1,2.99,2.99,0,0,1,4.94-1.12,3.154,3.154,0,0,1,.55.75A3.011,3.011,0,0,1,23,20V38a3,3,0,0,1,6,0v2a3,3,0,0,1,6,0v2a3,3,0,0,1,6,0Z" fill="#ffdaaa"/>
      <path id="Path_9" data-name="Path 9" d="M41,42.169v3.2a12,12,0,0,1-2.011,6.651L33.01,61H15.99l-2.33-4h2.561A20.147,20.147,0,0,0,32.99,48.02,12,12,0,0,0,35,41.37V42a3,3,0,0,1,3.22-2.992A3.116,3.116,0,0,1,41,42.169Z" fill="#ffb655"/>
      <path id="Path_10" data-name="Path 10" d="M38,38a3.932,3.932,0,0,0-2.24.69A4,4,0,0,0,32,36a3.906,3.906,0,0,0-2,.56V5a3.009,3.009,0,0,0-3-3H5A3.009,3.009,0,0,0,2,5V47a3.009,3.009,0,0,0,3,3H9.76a13,13,0,0,0,1.68,5.17l3.69,6.33a1,1,0,0,0,.86.5H33.01a1.008,1.008,0,0,0,.83-.45l5.98-8.97A12.969,12.969,0,0,0,42,45.37V42A4,4,0,0,0,38,38ZM9,4H23V5a1,1,0,0,1-1,1H10A1,1,0,0,1,9,5Zm.7,44H5a1,1,0,0,1-1-1V5A1,1,0,0,1,5,4H7V5a3.009,3.009,0,0,0,3,3H22a3.009,3.009,0,0,0,3-3V4h2a1,1,0,0,1,1,1V34.56a3.851,3.851,0,0,0-4,0V30.99a4.409,4.409,0,0,0,.54-.46A4.988,4.988,0,0,0,24,23.01V20a3.928,3.928,0,0,0-.12-.92,5.659,5.659,0,0,0,.66-.55A5,5,0,0,0,21,10H11a5,5,0,1,0,0,10h5v2H11a5,5,0,0,0,0,10h5v2H11a4.984,4.984,0,0,0-.45,9.95A13.029,13.029,0,0,0,9.7,48ZM23.13,17.11a1.811,1.811,0,0,1-.21.18,3.955,3.955,0,0,0-6.36.71H11a3,3,0,1,1,0-6H21a3.009,3.009,0,0,1,3,3A2.964,2.964,0,0,1,23.13,17.11ZM16,24v6H11a3,3,0,0,1,0-6ZM11,42a3,3,0,0,1,0-6h5v.64L11.64,42Zm29,3.37a11.012,11.012,0,0,1-1.84,6.1L32.47,60H16.57l-3.41-5.84a10.952,10.952,0,0,1-.33-10.45L16,39.81V45h2V20a2,2,0,0,1,4,0V45h2V38a2,2,0,0,1,4,0v8h2V40a2,2,0,1,1,4,0v8h2V42a2,2,0,0,1,4,0Z"/>
      <path id="Path_11" data-name="Path 11" d="M59,2H37a3,3,0,0,0-3,3V17a3,3,0,0,0,3,3H59a3,3,0,0,0,3-3V5a3,3,0,0,0-3-3Zm1,15a1,1,0,0,1-1,1H37a1,1,0,0,1-1-1V5a1,1,0,0,1,1-1H59a1,1,0,0,1,1,1Z"/>
      <path id="Path_12" data-name="Path 12" d="M42,6H58V8H42Z"/>
      <path id="Path_13" data-name="Path 13" d="M42,10H58v2H42Z"/>
      <path id="Path_14" data-name="Path 14" d="M42,14H58v2H42Z"/>
      <path id="Path_15" data-name="Path 15" d="M38,6h2V8H38Z"/>
      <path id="Path_16" data-name="Path 16" d="M38,10h2v2H38Z"/>
      <path id="Path_17" data-name="Path 17" d="M38,14h2v2H38Z"/>
      <path id="Path_18" data-name="Path 18" d="M47,28a3,3,0,0,1-3,3H32v2H44a5.006,5.006,0,0,0,5-5V26H47Z"/>
      <path id="Path_19" data-name="Path 19" d="M47,22h2v2H47Z"/>
    </g>
  </g>
</svg>
