<svg xmlns="http://www.w3.org/2000/svg" width="272.316" height="272.764" viewBox="0 0 272.316 272.764">
  <g id="Group_9" data-name="Group 9" transform="translate(-1135.757 -560.551)">
    <g id="search" transform="translate(1135.757 561)">
      <g id="Group_7" data-name="Group 7" transform="translate(0 0)">
        <path id="Path_13" data-name="Path 13" d="M270.654,262.631,187.8,179.773a108.2,108.2,0,1,0-8.022,8.023l82.857,82.857a5.673,5.673,0,1,0,8.022-8.022ZM107.792,204.237a96.445,96.445,0,1,1,96.445-96.445A96.556,96.556,0,0,1,107.792,204.237Z" transform="translate(0 0)"/>
      </g>
    </g>
    <g id="Rectangle_3" data-name="Rectangle 3" transform="translate(1135.757 560.551)" fill="none" stroke="#707070" stroke-width="1">
      <rect width="216" height="216" stroke="none"/>
      <rect x="0.5" y="0.5" width="215" height="215" fill="none"/>
    </g>
    <g id="paint-bucket" transform="translate(1182.989 587.565)">
      <path id="Path_17" data-name="Path 17" d="M146.063,33.8H46.695v93.288a12.2,12.2,0,0,0,12.2,12.2H133.86a12.2,12.2,0,0,0,12.2-12.2V33.8Z" transform="translate(-35.611 -5.557)" fill="#ffda44"/>
      <path id="Path_18" data-name="Path 18" d="M46.695,33.8V50.49h81.612a7.031,7.031,0,0,1,7.031,7.031v69.565a12.2,12.2,0,0,1-12.2,12.2H133.86a12.2,12.2,0,0,0,12.2-12.2V33.8Z" transform="translate(-35.611 -5.557)" fill="#e5bc15"/>
      <path id="Path_19" data-name="Path 19" d="M203.247,288.629H163.833a2.847,2.847,0,0,1-2.847-2.847v-8.12a2.847,2.847,0,0,1,2.847-2.847h39.414a2.847,2.847,0,0,1,2.847,2.847v8.12A2.848,2.848,0,0,1,203.247,288.629Z" transform="translate(-122.772 -189.363)" fill="#2d5872"/>
      <path id="Path_20" data-name="Path 20" d="M203.247,297.956H163.833a2.847,2.847,0,0,1-2.847-2.847v6.15a2.847,2.847,0,0,0,2.847,2.847h39.414a2.847,2.847,0,0,0,2.847-2.847v-6.15A2.848,2.848,0,0,1,203.247,297.956Z" transform="translate(-122.772 -204.839)" fill="#234c60"/>
      <path id="Path_21" data-name="Path 21" d="M125.352,45.417H24.133a5.809,5.809,0,0,1-5.809-5.809h0A5.809,5.809,0,0,1,24.133,33.8H125.352a5.809,5.809,0,0,1,5.809,5.809h0A5.809,5.809,0,0,1,125.352,45.417Z" transform="translate(-13.974 -5.558)" fill="#ff6d3a"/>
      <path id="Path_22" data-name="Path 22" d="M125.352,48.939H24.133a5.805,5.805,0,0,1-5.03-2.9,5.779,5.779,0,0,0-.779,2.9h0a5.809,5.809,0,0,0,5.809,5.809H125.352a5.809,5.809,0,0,0,5.809-5.809h0a5.781,5.781,0,0,0-.779-2.9A5.806,5.806,0,0,1,125.352,48.939Z" transform="translate(-13.974 -14.889)" fill="#ed5729"/>
      <path id="Path_23" data-name="Path 23" d="M89.948,73.4a5.527,5.527,0,0,0,5.527,5.527h0A5.527,5.527,0,0,0,101,73.4v-7.7a5.527,5.527,0,0,1,5.527-5.527h0a5.527,5.527,0,0,1,5.527,5.5v2.192a5.521,5.521,0,0,0,5.528,5.527h0a5.527,5.527,0,0,0,5.527-5.527v-7.72a5.527,5.527,0,0,1,5.527-5.5h0a5.527,5.527,0,0,1,5.527,5.527V62.35a5.527,5.527,0,0,0,11.055,0V33.8H90.149Z" transform="translate(-68.597 -5.557)" fill="#0000fe"/>
      <path id="Path_24" data-name="Path 24" d="M206.371,73.4h0a5.527,5.527,0,0,0,5.527-5.527v-7.72a5.527,5.527,0,0,1,5.527-5.5h0a5.527,5.527,0,0,1,5.527,5.527V62.35a5.527,5.527,0,0,0,11.055,0V33.8H206.371Z" transform="translate(-157.384 -5.557)" fill="#0000fe"/>
      <path id="Path_25" data-name="Path 25" d="M140.506,289.046a1.73,1.73,0,0,0-1.73,1.73v30.969A10.485,10.485,0,0,1,128.3,332.217H53.34a10.485,10.485,0,0,1-10.473-10.473V290.831a1.73,1.73,0,0,0-3.46,0v30.914A13.948,13.948,0,0,0,53.34,335.677H128.3a13.948,13.948,0,0,0,13.932-13.932V290.776A1.73,1.73,0,0,0,140.506,289.046Z" transform="translate(-30.053 -200.216)"/>
      <path id="Path_26" data-name="Path 26" d="M112.182,46.219V41.545a7.539,7.539,0,0,0-.8-15.034H10.158a7.539,7.539,0,0,0-.8,15.034v4.674A9.518,9.518,0,0,0,0,55.724v7.209A31.191,31.191,0,0,0,31.156,94.089h5.329v2.33A4.582,4.582,0,0,0,41.062,101H80.475a4.582,4.582,0,0,0,4.577-4.577v-2.33h5.329a31.191,31.191,0,0,0,31.156-31.156V55.724A9.518,9.518,0,0,0,112.182,46.219ZM78.353,29.97h33.024a4.08,4.08,0,0,1,0,8.159H78.353Zm-55.13,9.9.051-9.9h51.62V56.793a3.8,3.8,0,1,1-7.6,0V54.623a7.257,7.257,0,0,0-7.257-7.257h0A7.275,7.275,0,0,0,52.786,54.6v7.72a3.8,3.8,0,1,1-7.6,0v-2.2h0c0-.01,0-.019,0-.029a7.256,7.256,0,0,0-14.513.06v7.7a3.8,3.8,0,0,1-7.6,0ZM6.079,34.05a4.084,4.084,0,0,1,4.08-4.08h9.656l-.042,8.159H10.158A4.084,4.084,0,0,1,6.079,34.05ZM81.593,92.36v4.06a1.119,1.119,0,0,1-1.118,1.118H41.062a1.119,1.119,0,0,1-1.118-1.118V88.3a1.119,1.119,0,0,1,1.118-1.118H80.475A1.119,1.119,0,0,1,81.593,88.3Zm36.484-29.426a27.728,27.728,0,0,1-27.7,27.7H85.052V88.3a4.582,4.582,0,0,0-4.577-4.577H41.062A4.582,4.582,0,0,0,36.484,88.3v2.33H31.156a27.728,27.728,0,0,1-27.7-27.7V55.724a6.056,6.056,0,0,1,5.9-6.046V77.589a1.73,1.73,0,0,0,3.46,0v-36h6.941l-.133,26.25v.009a7.257,7.257,0,1,0,14.514,0v-7.7a3.8,3.8,0,0,1,7.595-.023V62.32a7.251,7.251,0,0,0,7.257,7.257h0a7.257,7.257,0,0,0,7.257-7.257V54.608a3.8,3.8,0,0,1,7.595.016v2.169a7.257,7.257,0,1,0,14.514,0v-15.2h30.369V77.647a1.73,1.73,0,0,0,3.46,0V49.678a6.056,6.056,0,0,1,5.9,6.046v7.209Z"/>
    </g>
  </g>
</svg>
