<svg height="376pt" viewBox="1 0 376.91275 376" width="376pt" xmlns="http://www.w3.org/2000/svg"><path d="m294.214844 156.953125h31.296875c24.199219 0 43.820312 19.621094 43.820312 43.820313v87.636718c0 6.917969-5.605469 12.523438-12.519531 12.523438s-12.519531-5.605469-12.519531-12.523438v-81.375c0-13.832031-11.210938-25.042968-25.042969-25.042968zm0 0" fill="#fcbc22"/><path d="m356.8125 325.96875-11.945312 19.910156c-3.839844 6.378906-1.980469 14.652344 4.21875 18.777344 4.679687 3.117188 10.773437 3.117188 15.453124 0 6.199219-4.125 8.058594-12.398438 4.21875-18.777344zm0 0" fill="#fcbc22"/><path d="m6.257812 207.03125 137.714844-137.71875 162.757813 162.757812-137.714844 137.71875zm0 0" fill="#e6e6e6"/><path d="m131.457031 56.800781 18.78125-18.78125 187.792969 187.792969-18.78125 18.78125zm0 0" fill="#f2f2f2"/><path d="m331.773438 200.773438c-1.601563 0-3.203126-.613282-4.425782-1.835938l-156.496094-156.496094c-2.445312-2.445312-2.445312-6.40625 0-8.851562 2.445313-2.445313 6.40625-2.445313 8.851563 0l156.496094 156.496094c2.445312 2.445312 2.445312 6.40625 0 8.851562-1.222657 1.222656-2.824219 1.835938-4.425781 1.835938zm0 0" fill="#f2f2f2"/><path d="m150.234375 238.332031 50.082031-50.082031 75.121094 75.121094-50.082031 50.082031zm0 0" fill="#fcbc22"/><path d="m43.820312 213.292969c-3.457031 0-6.261718-2.804688-6.261718-6.261719 0-1.660156.660156-3.25 1.832031-4.425781l100.160156-100.15625c2.488281-2.402344 6.449219-2.332031 8.851563.152343 2.34375 2.425782 2.34375 6.273438 0 8.699219l-100.160156 100.15625c-1.171876 1.175781-2.765626 1.835938-4.421876 1.835938zm0 0" fill="#f2f2f2"/><path d="m212.835938 169.472656c-3.457032 0-6.261719-2.800781-6.261719-6.257812v-156.5c0-3.457032 2.804687-6.257813 6.261719-6.257813 3.457031 0 6.257812 2.800781 6.257812 6.257813v156.496094c0 3.460937-2.800781 6.261718-6.257812 6.261718zm0 0" fill="#999"/><path d="m164.589844 374.214844c2.445312 2.445312 6.40625 2.445312 8.851562 0l106.417969-106.417969 26.871094-26.875 8.09375 8.09375c2.445312 2.445313 6.40625 2.445313 8.851562 0l14.355469-14.351563v53.746094c0 10.371094 8.40625 18.78125 18.777344 18.78125 10.375 0 18.78125-8.410156 18.78125-18.78125v-87.636718c-.03125-27.648438-22.433594-50.046876-50.078125-50.078126h-28.707031l-77.710938-77.710937v-66.269531c0-3.457032-2.804688-6.257813-6.261719-6.257813-3.453125 0-6.257812 2.800781-6.257812 6.257813v53.75l-26.871094-26.875c-2.402344-2.484375-6.367187-2.554688-8.851563-.152344-2.488281 2.398438-2.558593 6.363281-.15625 8.851562.050782.050782.101563.101563.15625.152344l35.722657 35.726563v7.335937l-51.914063-51.914062c-2.445312-2.441406-6.40625-2.441406-8.851562 0l-18.777344 18.78125c-2.445312 2.441406-2.445312 6.40625 0 8.851562l8.09375 8.09375-133.292969 133.289063c-2.441406 2.445312-2.441406 6.410156 0 8.851562zm60.765625-69.617188-66.269531-66.265625 41.230468-41.226562 66.265625 66.265625zm93.898437-68.855468-100.160156-100.160157v-19.855469l110.085938 110.085938zm6.257813-72.527344c20.734375.019531 37.539062 16.824218 37.558593 37.558594v87.636718c0 3.457032-2.800781 6.261719-6.257812 6.261719s-6.257812-2.804687-6.257812-6.261719v-81.375c-.019532-16.230468-12.425782-29.757812-28.589844-31.183594l-12.640625-12.636718zm-106.417969-72.527344 70.691406 70.691406 25.042969 25.039063 12.519531 12.519531c2.425782 2.417969 6.34375 2.433594 8.792969.039062 1.230469 2.507813 1.878906 5.261719 1.890625 8.058594v9.925782l-118.9375-118.9375zm-68.859375-43.820312 56.339844 56.339843v19.855469l-66.265625-66.265625zm-6.257813 31.300781 62.597657 62.597656v22.449219c0 3.457031 2.804687 6.257812 6.257812 6.257812 3.457031 0 6.261719-2.800781 6.261719-6.257812v-9.929688l78.785156 78.785156-22.449218 22.449219-70.691407-70.691406c-2.445312-2.445313-6.40625-2.445313-8.851562 0l-50.078125 50.078125c-2.441406 2.445312-2.441406 6.40625 0 8.851562l70.691406 70.691407-47.484375 47.488281-153.90625-153.90625zm0 0"/><path d="m362.175781 322.746094c-2.03125-2.960938-6.078125-3.71875-9.042969-1.6875-.660156.453125-1.230468 1.027344-1.683593 1.6875l-11.953125 19.914062c-5.730469 9.5625-2.628906 21.960938 6.9375 27.695313 9.5625 5.734375 21.960937 2.628906 27.695312-6.933594 3.828125-6.390625 3.828125-14.371094 0-20.761719zm-1.105469 36.683594c-3.53125 2.347656-8.296874 1.386718-10.640624-2.144532-1.636719-2.460937-1.714844-5.648437-.195313-8.183594l6.578125-10.960937 6.578125 10.992187c2.09375 3.503907 1.070313 8.03125-2.320313 10.296876zm0 0"/><path d="m148.402344 102.449219c-2.445313-2.445313-6.40625-2.445313-8.851563 0l-100.160156 100.15625c-2.484375 2.402343-2.554687 6.367187-.152344 8.851562 2.402344 2.488281 6.363281 2.554688 8.851563.15625.050781-.050781.101562-.101562.152344-.15625l100.160156-100.15625c2.441406-2.445312 2.441406-6.40625 0-8.851562zm0 0"/></svg>