<svg xmlns="http://www.w3.org/2000/svg" xmlns:xlink="http://www.w3.org/1999/xlink" width="283.559" height="261.815" viewBox="0 0 283.559 261.815">
  <defs>
    <clipPath id="clip-path">
      <rect id="Rectangle_1" data-name="Rectangle 1" width="82.897" height="82.897" fill="#fff"/>
    </clipPath>
  </defs>
  <g id="Paint-Roller-QnA" transform="translate(-202 -189)">
    <g id="Group_2" data-name="Group 2" transform="translate(-617 -221)">
      <path id="Path_1" data-name="Path 1" d="M175.265,175.817h19.111V252.26a6.371,6.371,0,0,1-6.37,6.37h-6.371a6.371,6.371,0,0,1-6.37-6.37Z" transform="translate(819 410)" fill="#2d2d30"/>
      <path id="Path_2" data-name="Path 2" d="M251.708,86.635v38.221H146.6v9.555a6.37,6.37,0,0,1-12.74,0v35.036a6.37,6.37,0,1,1-12.74,0v-19.11a6.371,6.371,0,0,1-12.741,0V124.856H98.823V86.635Z" transform="translate(819 410)" fill="#ffda44"/>
      <path id="Path_4" data-name="Path 4" d="M251.708,96.19h9.555V115.3h-9.555Z" transform="translate(819 410)" fill="#c6c5ca"/>
      <path id="Path_5" data-name="Path 5" d="M178.45,166.262h12.741v9.555H178.45Z" transform="translate(819 410)" fill="#c6c5ca"/>
      <path id="Path_6" data-name="Path 6" d="M270.818,102.56h-6.37V96.19A3.185,3.185,0,0,0,261.263,93h-6.37v-6.37a3.185,3.185,0,0,0-3.185-3.185H98.823a3.185,3.185,0,0,0-3.185,3.185V93h-6.37a3.185,3.185,0,0,0-3.185,3.185V115.3a3.185,3.185,0,0,0,3.185,3.185h6.37v6.37a3.185,3.185,0,0,0,3.185,3.185h6.37v22.3a9.557,9.557,0,0,0,12.74,9.009v10.1a9.556,9.556,0,0,0,19.111,0V143.421a9.558,9.558,0,0,0,12.74-9.01v-6.37H251.708a3.185,3.185,0,0,0,3.185-3.185v-6.37h6.37a3.185,3.185,0,0,0,3.185-3.185V108.93h6.37a6.379,6.379,0,0,1,6.37,6.371v25.48a6.379,6.379,0,0,1-6.37,6.371h-86a3.184,3.184,0,0,0-3.186,3.185v12.74H178.45a3.185,3.185,0,0,0-3.185,3.185v6.37a3.185,3.185,0,0,0-3.185,3.185V252.26a9.568,9.568,0,0,0,9.555,9.555h6.371a9.568,9.568,0,0,0,9.555-9.555V175.817a3.185,3.185,0,0,0-3.185-3.185v-6.37a3.185,3.185,0,0,0-3.185-3.185h-3.185v-9.555h82.812a12.756,12.756,0,0,0,12.741-12.741V115.3a12.756,12.756,0,0,0-12.741-12.741Zm-175.18,9.555H92.453V99.375h3.185Zm152.884,9.556H146.6a3.185,3.185,0,0,0-3.185,3.185v9.555a3.185,3.185,0,0,1-6.37,0,3.185,3.185,0,0,0-6.37,0v35.036a3.185,3.185,0,0,1-6.37,0v-19.11a3.186,3.186,0,1,0-6.371,0,3.185,3.185,0,0,1-6.37,0V124.856a3.185,3.185,0,0,0-3.185-3.185h-6.37V89.82H248.522Zm9.556-9.556h-3.185V99.375h3.185Zm-76.443,57.332h6.371v3.185h-6.371ZM191.191,179V252.26a3.189,3.189,0,0,1-3.185,3.185h-6.371a3.189,3.189,0,0,1-3.185-3.185V179Z" transform="translate(819 410)"/>
      <path id="Path_7" data-name="Path 7" d="M121.119,121.671a3.185,3.185,0,0,0-3.186,3.185v15.925a3.186,3.186,0,0,0,6.371,0V124.856a3.185,3.185,0,0,0-3.185-3.185Z" transform="translate(819 410)"/>
      <path id="Path_8" data-name="Path 8" d="M133.859,118.486a3.184,3.184,0,0,0-3.185,3.185v3.185a3.185,3.185,0,0,0,6.37,0v-3.185a3.184,3.184,0,0,0-3.185-3.185Z" transform="translate(819 410)"/>
      <path id="Path_3" data-name="Path 3" d="M89.268,96.19h9.555V115.3H89.268Z" transform="translate(819 410)" fill="#c6c5ca"/>
    </g>
    <g id="Group_1" data-name="Group 1" transform="translate(202 189)" clip-path="url(#clip-path)">
      <path id="Path_9" data-name="Path 9" d="M27.968,5.176a1.62,1.62,0,1,1,1.588-1.3A1.634,1.634,0,0,1,27.968,5.176Z"/>
      <path id="Path_10" data-name="Path 10" d="M77.766,30.9H55.724V7.048a5.127,5.127,0,0,0-5.131-5.11H35.258a1.619,1.619,0,1,0,0,3.238H50.593a1.885,1.885,0,0,1,1.893,1.872V38.343a1.885,1.885,0,0,1-1.893,1.872H27.777a1.618,1.618,0,0,0-.76.189L16.366,46.065V41.834a1.619,1.619,0,0,0-1.619-1.619H5.131a1.885,1.885,0,0,1-1.893-1.872V7.048A1.885,1.885,0,0,1,5.131,5.176H20.62a1.619,1.619,0,1,0,0-3.238H5.131A5.127,5.127,0,0,0,0,7.048V38.343a5.126,5.126,0,0,0,5.131,5.11h8v5.306a1.619,1.619,0,0,0,2.379,1.43l12.675-6.736h.611V68.924a5.127,5.127,0,0,0,5.131,5.11H54.716L67.391,80.77a1.619,1.619,0,0,0,2.379-1.43V74.034h8a5.126,5.126,0,0,0,5.131-5.11V36.01A5.126,5.126,0,0,0,77.766,30.9Zm1.893,38.024A1.885,1.885,0,0,1,77.766,70.8H68.151a1.619,1.619,0,0,0-1.619,1.619v4.231L55.88,70.985a1.619,1.619,0,0,0-.76-.189h-21.2a1.885,1.885,0,0,1-1.893-1.872V43.453H50.593a5.127,5.127,0,0,0,5.131-5.11v-4.2H77.766a1.885,1.885,0,0,1,1.893,1.872Z" fill="#001e98"/>
      <path id="Path_11" data-name="Path 11" d="M64.646,64.79l-6.867-18.2-.018-.045a2.03,2.03,0,0,0-1.884-1.262h0a2.03,2.03,0,0,0-1.883,1.265l-.015.037-6.93,18.2a1.619,1.619,0,0,0,3.026,1.153L51.4,62.449h8.9l1.315,3.484a1.619,1.619,0,0,0,3.03-1.143ZM52.634,59.21l3.237-8.5,3.208,8.5Z" fill="#0000fe"/>
      <path id="Path_12" data-name="Path 12" d="M38.271,30.217,36.615,28.56a10.859,10.859,0,1,0-2.268,2.312l1.635,1.635a1.619,1.619,0,0,0,2.29-2.29Zm-10.444-.4a7.614,7.614,0,1,1,6.457-3.587l-1.917-1.917a1.619,1.619,0,0,0-2.29,2.29l1.949,1.949A7.566,7.566,0,0,1,27.827,29.817Z" fill="#0000fe"/>
    </g>
  </g>
</svg>
