<svg xmlns="http://www.w3.org/2000/svg" width="272.316" height="272.316" viewBox="0 0 272.316 272.316">
  <g id="Brush-Search" transform="translate(-216.536 -280.551)">
    <g id="brush-2" transform="translate(250.967 326.983)">
      <g id="g976" transform="translate(0 -0.001)">
        <path id="path966" d="M131.3,1.841A6.246,6.246,0,0,0,126.1.046L115.946,1.278a23.37,23.37,0,0,0-15.511,8.637l-6.148,7.647L89.268,23.8a1.95,1.95,0,1,0,3.04,2.444L95.964,21.7l15.475,15.474L87.816,56.166a4.812,4.812,0,0,0-.387,7.153l12.23,12.23a2.506,2.506,0,0,1,0,3.543l-3.372,3.372L50.675,36.852l3.372-3.372a2.508,2.508,0,0,1,3.543,0L69.82,45.71a4.818,4.818,0,0,0,3.4,1.409q.129,0,.26-.007a4.819,4.819,0,0,0,3.49-1.79L87.414,32.335a1.95,1.95,0,1,0-3.04-2.444L73.933,42.878a.911.911,0,0,1-1.355.074L60.348,30.722a6.405,6.405,0,0,0-9.059,0L47.732,34.28a4.4,4.4,0,0,0-4.985.862l-9.374,9.374a4.382,4.382,0,0,0-1.047,4.536L1.288,76.5a3.816,3.816,0,0,0-.17,5.557l36.066,36.066a3.838,3.838,0,0,0,3.606,1.008l7.5-1.837-1.837,7.5a3.839,3.839,0,0,0,1.008,3.606l3.614,3.614a3.83,3.83,0,0,0,2.7,1.118l.115,0a3.831,3.831,0,0,0,2.742-1.286l27.453-31.04a4.381,4.381,0,0,0,4.534-1.044L98,90.391a4.4,4.4,0,0,0,.862-4.984l3.557-3.557a6.412,6.412,0,0,0,0-9.059L90.187,60.561a.912.912,0,0,1,.073-1.355l25.317-20.355,7.646-6.148a23.369,23.369,0,0,0,8.637-15.512l1.232-10.152a6.246,6.246,0,0,0-1.795-5.2ZM53.773,129.2l-3.518-3.518,1.859-7.591a3.816,3.816,0,0,0-4.615-4.615l-7.591,1.858L24.876,100.3,30.883,94.3a1.95,1.95,0,1,0-2.758-2.758l-6.007,6.007L3.939,79.365,34.753,52.113l5.68,5.68L37.027,61.2a1.95,1.95,0,1,0,2.758,2.758l3.406-3.406L61.869,79.229l-18.56,18.56a1.95,1.95,0,1,0,2.758,2.758l18.56-18.56,7.966,7.966-7.437,7.437a1.95,1.95,0,1,0,2.758,2.758l7.437-7.437,5.674,5.674ZM95.239,87.633l-9.375,9.375a.5.5,0,0,1-.7,0L36.131,47.975a.5.5,0,0,1,0-.7L45.505,37.9a.5.5,0,0,1,.7,0L95.239,86.931A.5.5,0,0,1,95.239,87.633ZM129.22,6.571l-1.232,10.152a19.494,19.494,0,0,1-7.206,12.939l0,0L114.5,34.715,98.423,18.642l5.054-6.286A19.493,19.493,0,0,1,116.416,5.15l10.152-1.232a2.383,2.383,0,0,1,2.653,2.653Z" transform="translate(0 0.001)"/>
        <path id="path968" d="M417.618,46.568a6.73,6.73,0,1,0,9.518,0,6.686,6.686,0,0,0-9.518,0Zm6.76,6.76a2.829,2.829,0,1,1,0-4A2.834,2.834,0,0,1,424.379,53.329Z" transform="translate(-307.564 -33.002)"/>
        <path id="path970" d="M138.442,297.758a1.95,1.95,0,0,0-2.758,0l-8.252,8.252a1.95,1.95,0,1,0,2.758,2.758l8.252-8.252A1.95,1.95,0,0,0,138.442,297.758Z" transform="translate(-93.873 -219.908)"/>
        <path id="path972" d="M212.658,393.8l-5.4,5.4a1.95,1.95,0,1,0,2.758,2.758l5.4-5.4a1.95,1.95,0,1,0-2.758-2.758Z" transform="translate(-152.937 -290.979)"/>
        <path id="path974" d="M85.546,254.829a1.95,1.95,0,0,0-2.758,0L69.83,267.787a1.95,1.95,0,1,0,2.758,2.758l12.958-12.958A1.95,1.95,0,0,0,85.546,254.829Z" transform="translate(-51.249 -188.141)"/>
      </g>
      <path id="path1546" d="M32.356,188.638,1.3,216.132l-.235.18-.1.111-.152.194-.208.332L.5,217.1l-.062.128-.093.19-.087.228-.083.263L.1,218.2l-.024.142-.028.183-.007.239v.523l.083.519.038.125.076.256.128.325.121.232.182.315.137.189.168.211.469.481.861.86,35.048,35.048.263.21.289.2.166.088.267.135.36.144.335.1.419.078.25.023.2,0,.254,0,.218-.024.227-.033.422-.1.291-.069.377-.1,6.634-1.62-1.859,7.587-.04.2-.04.345-.006.46.041.4.106.467.187.52.2.37.333.488.463.479.809.809,2.808,2.791.126.106.358.248.337.179.374.167.183.057.317.085.366.057.268.024.215,0,.317-.012.537-.09.534-.178.419-.2.448-.282.328-.293.293-.307.437-.494L84.118,240.4l-3.064-2.424L53.8,268.785l-3.518-3.518,1.907-7.8.02-.121.014-.121.019-.177.006-.118,0-.138,0-.129,0-.113-.006-.084-.013-.127-.029-.224-.021-.1-.03-.141-.039-.154-.05-.154-.078-.214-.089-.207-.119-.225-.183-.3-.25-.321-.187-.205-.264-.246-.211-.163-.11-.083-.282-.171-.392-.191-.425-.144-.571-.114-.379-.029-.422.017-.546.089-.822.2-6.793,1.67L24.906,239.888,30.9,233.9l.175-.2.147-.218.089-.172.106-.3.052-.25.014-.282-.017-.241-.04-.224-.124-.328-.112-.2-.178-.247-.19-.192-.17-.132-.233-.144-.23-.095-.253-.075-.247-.037h-.27l-.158.011-.149.032-.2.06-.164.052-.25.135-.152.112-.167.135-.147.149-5.888,5.889L3.969,218.951,34.782,191.7Z" transform="translate(-0.029 -139.586)" fill="#ffda44"/>
      <path id="path1548" d="M144.166,222.251l2.758,2.758-3.11,3.11-.346.349-.241.19-.276.149-.293.109-.293.052-.2.023-.523-.057-.373-.144-.3-.184-.267-.238-.144-.181-.175-.28-.093-.223-.073-.256-.028-.223-.008-.26.02-.187.081-.325.089-.228.11-.215.114-.154.187-.2.26-.264Z" transform="translate(-103.734 -164.458)" fill="#ffda44"/>
      <path id="path1550" d="M84.012,254.057l-.2.023-.293.052-.293.109-.276.149-.241.189-.346.35-9.23,9.327-3.117,3.117-.26.264-.187.2-.114.154-.11.215-.089.228-.081.325-.02.187.008.26.028.224.073.256.093.223.175.28.144.182.267.238.3.184.373.144.523.057.2-.023.293-.052.293-.109.276-.149.241-.19.346-.349,3.11-3.11,9.283-9.276.271-.275.187-.2.133-.2.1-.2.1-.243.069-.319.01-.215,0-.151-.012-.105-.018-.137-.02-.092-.04-.146-.037-.1-.094-.228-.105-.159-.088-.12-.081-.1-.076-.078-.093-.091-.175-.147-.3-.184-.373-.144Z" transform="translate(-51.174 -187.993)" fill="#ffda44"/>
      <path id="path1554" d="M131.146,308.765l-2.891-2.651,8.15-8.155.346-.349.241-.19.276-.149.293-.109.293-.052.2-.023.523.057.374.144.3.184.175.147.092.091.076.078.081.1.088.12.105.159.093.228.037.1.04.146.02.092.018.137.012.105,0,.151-.01.215-.068.319-.1.243-.1.2-.133.2-.187.2-.271.275Z" transform="translate(-94.904 -219.834)" fill="#ffda44"/>
      <path id="path1556" d="M130.64,318.022l2.758,2.758-3.087,3.142-.363.384-.218.152-.29.147-.282.095-.3.057-.218.006-.17-.012-.353-.045-.373-.144-.3-.184-.267-.238-.144-.181-.175-.28-.093-.223-.073-.256-.028-.224-.008-.26.02-.187.081-.325.089-.228.11-.215.114-.154.187-.2.26-.264Z" transform="translate(-93.725 -235.325)" fill="#ffd42a"/>
      <path id="path1561" d="M183.458,304.688l2.758,2.758-18.262,18.267-.348.355-.238.184-.261.152-.31.112-.284.052-.213.014-.2-.01-.322-.047-.373-.144-.3-.184-.267-.239-.144-.181-.175-.28-.093-.223-.073-.256-.028-.223-.008-.26.02-.187.081-.325.089-.228.11-.215.114-.154.187-.2.26-.264Z" transform="translate(-121.589 -225.459)" fill="#ffda44"/>
      <path id="path1563" d="M213.3,392.732l-.2.023-.293.052-.293.109-.276.15-.242.189-.346.349-2.014,2.064-3.117,3.117-.26.264-.187.2-.114.154-.11.216-.089.227-.081.325-.02.187.008.26.029.224.073.256.093.223.175.281.144.181.267.238.3.184.373.144.353.045.17.012.218-.005.3-.057.282-.095.29-.146.218-.152.364-.384,3.128-3.091c.737-.617,1.319-1.414,2.026-2.064l.271-.275.187-.2.133-.2.1-.2.1-.244.068-.319.01-.216,0-.151-.012-.105-.018-.137-.019-.092-.041-.146-.036-.1-.094-.228-.106-.159-.087-.12-.082-.1-.076-.078-.093-.091-.175-.147-.3-.184-.373-.144Z" transform="translate(-152.182 -290.608)" fill="#ffda44"/>
      <path id="path1567" d="M256.318,345.929l2.758,2.758-7.15,7.152-.348.355-.238.184-.261.152-.31.112-.284.052-.213.014-.2-.01-.322-.047-.373-.144-.3-.184-.267-.238-.144-.181-.175-.28-.093-.223-.073-.256-.028-.223-.008-.26.02-.187.081-.325.089-.228.11-.215.114-.154.187-.2.26-.264Z" transform="translate(-183.725 -255.975)" fill="#ffda44"/>
      <path id="path1573" d="M422.233,44.5a6.775,6.775,0,1,0,.028,0Zm0,3.928a2.824,2.824,0,1,1-2.8,2.818,2.857,2.857,0,0,1,2.8-2.818Z" transform="translate(-307.455 -32.929)" fill="#0000fe"/>
    </g>
    <g id="search" transform="translate(216.536 280.551)">
      <g id="Group_7" data-name="Group 7" transform="translate(0 0)">
        <path id="Path_13" data-name="Path 13" d="M270.654,262.631,187.8,179.773a108.2,108.2,0,1,0-8.022,8.023l82.857,82.857a5.673,5.673,0,1,0,8.022-8.022ZM107.792,204.237a96.445,96.445,0,1,1,96.445-96.445A96.556,96.556,0,0,1,107.792,204.237Z" transform="translate(0 0)"/>
      </g>
    </g>
  </g>
</svg>
