<svg xmlns="http://www.w3.org/2000/svg" width="272.316" height="272.316" viewBox="0 0 272.316 272.316">
  <g id="Paint-Bucket-Search" transform="translate(-876 -568.449)">
    <g id="search" transform="translate(876 568.449)">
      <g id="Group_7" data-name="Group 7" transform="translate(0 0)">
        <path id="Path_13" data-name="Path 13" d="M270.654,262.631,187.8,179.773a108.2,108.2,0,1,0-8.022,8.023l82.857,82.857a5.673,5.673,0,1,0,8.022-8.022ZM107.792,204.237a96.445,96.445,0,1,1,96.445-96.445A96.556,96.556,0,0,1,107.792,204.237Z" transform="translate(0 0)"/>
      </g>
    </g>
    <g id="Page-1" transform="translate(1143.379 277.815)">
      <g id="_016---Paint-Bucket" data-name="016---Paint-Bucket" transform="translate(-225 332.564)">
        <path id="Shape" d="M95.808,38.623c0,16.908-9.8,30.623-21.874,30.623H28c12.074,0,15.311-13.715,15.311-30.623,0-16.274-2.515-29.573-13.955-30.557C28.919,8.022,28.459,8,28,8H73.935C86.009,8,95.808,21.715,95.808,38.623Z" transform="translate(33.246 9.499)" fill="#f1c100"/>
        <path id="Shape-2" data-name="Shape" d="M89.246,38.623c0,16.908-9.8,30.623-21.874,30.623H28c12.074,0,15.311-13.715,15.311-30.623,0-16.274-2.515-29.573-13.955-30.557C28.919,8.022,28.459,8,28,8H67.372C79.447,8,89.246,21.715,89.246,38.623Z" transform="translate(33.246 9.499)" fill="#ffda44"/>
        <path id="Shape-3" data-name="Shape" d="M51.666,38.623c0,16.908-9.8,30.623-21.874,30.623a14.4,14.4,0,0,1-3.237-.35C37.055,66.643,45.1,53.956,45.1,38.623S37.011,10.559,26.49,8.35a16.424,16.424,0,0,1,3.3-.35c.459,0,.919.022,1.356.066C42.589,9.05,51.666,22.349,51.666,38.623Z" transform="translate(31.453 9.499)" fill="#cfd8dc"/>
        <path id="Shape-4" data-name="Shape" d="M55.187,38.433c0,15.333-8.049,28.02-18.549,30.273h-.022c-.328-.066-.634-.131-.941-.219.437-1.072.875-2.034,1.356-2.953a15.706,15.706,0,0,1,6.628-6.278,13.485,13.485,0,0,0,3.719-3.194H47.4a24.876,24.876,0,0,0,4.9-10.806c.175-.875.328-1.794.437-2.734A30.853,30.853,0,0,0,53,38.433c0-12.884-6.912-21.874-13.124-21.874a7.562,7.562,0,0,0-3.281.809c-5.14,2.45-9.843,10.434-9.843,21.064a28.655,28.655,0,0,0,4.615,16.318,42.268,42.268,0,0,0-6.212,6.3,26.354,26.354,0,0,1-2.712-4.178A38.624,38.624,0,0,1,18,38.433c0-15.29,8.006-27.976,18.483-30.251.022,0,.066-.022.087-.022C47.093,10.369,55.187,23.078,55.187,38.433Z" transform="translate(21.371 9.689)" fill="#f5f5f5"/>
        <path id="Shape-5" data-name="Shape" d="M88.494,60.286c0,9.056-19.577,16.405-43.747,16.405-1.116,0-2.209-.022-3.281-.044C18.827,76.014,1,68.927,1,60.286c0-7.962,15.093-14.59,35.151-16.1l9.646-.044,5.95-.044h.131C72.658,45.369,88.494,52.149,88.494,60.286Z" transform="translate(1.187 52.362)" fill="#c9a200"/>
        <path id="Shape-6" data-name="Shape" d="M81.932,60.263c0,8.64-17.827,15.727-40.466,16.361C18.827,75.99,1,68.9,1,60.263c0-7.962,15.093-14.59,35.151-16.1L45.8,44.12C66.336,45.454,81.932,52.191,81.932,60.263Z" transform="translate(1.187 52.386)" fill="#ffda44"/>
        <path id="Shape-7" data-name="Shape" d="M48.25,33.874a30.855,30.855,0,0,1-.262,4.09c-.109.941-.262,1.859-.437,2.734-5.862,2.056-14.2,4.025-20.933,9.493a20.354,20.354,0,0,1-1.334-2.165A30.253,30.253,0,0,1,22,33.874c0-11.374,5.381-19.708,10.937-21.5A6.956,6.956,0,0,1,35.126,12C41.338,12,48.25,20.99,48.25,33.874Z" transform="translate(26.12 14.248)" fill="#545c60"/>
        <path id="Shape-8" data-name="Shape" d="M43.875,33.672a30.854,30.854,0,0,1-.262,4.09c-.109.941-.262,1.859-.437,2.734-5.009,1.75-11.812,3.456-17.893,7.328A30.253,30.253,0,0,1,22,33.672c0-11.374,5.381-19.708,10.937-21.5C38.494,13.964,43.875,22.3,43.875,33.672Z" transform="translate(26.12 14.45)" fill="#7f8e94"/>
        <path id="Shape-9" data-name="Shape" d="M58.6,25.12a24.876,24.876,0,0,1-4.9,10.806h-.022a13.485,13.485,0,0,1-3.719,3.194A15.706,15.706,0,0,0,43.335,45.4c-.481.919-.919,1.881-1.356,2.953A53.7,53.7,0,0,0,39.07,58.762a75.8,75.8,0,0,0-1.2,7.874,19.353,19.353,0,0,0,.5,6.65,9.491,9.491,0,0,0,3.237,4.987,1.081,1.081,0,0,1-.394,1.947A56.631,56.631,0,0,1,26.952,81.4c-1.072-.066-2.144-.153-3.237-.306a65.2,65.2,0,0,1-10.259-2.1,1.094,1.094,0,0,1,.044-2.1,12.614,12.614,0,0,0,6.781-5.775,22.634,22.634,0,0,0,1.99-4.4c1.553-4.506,2.012-9.384,3.215-14a31.583,31.583,0,0,1,5.971-11.812,42.268,42.268,0,0,1,6.212-6.3A48.508,48.508,0,0,1,53.7,26.739C55.453,26.17,57.116,25.645,58.6,25.12Z" transform="translate(15.067 29.826)" fill="#c9a200"/>
        <path id="Shape-10" data-name="Shape" d="M53.7,25.86a24.259,24.259,0,0,1-3.915,7h-.022a14.074,14.074,0,0,1-3.893,3.347,16.57,16.57,0,0,0-6.956,6.584c-.5.962-.962,1.969-1.422,3.084a55.786,55.786,0,0,0-3.04,10.915c-.481,2.669-1.05,5.468-1.269,8.246a20.72,20.72,0,0,0,.525,6.978,10.063,10.063,0,0,0,3.412,5.228c.787.591,2.246,2.459.2,2.782a47.177,47.177,0,0,1-10.372.5c-1.072-.066-2.144-.153-3.237-.306a65.2,65.2,0,0,1-10.259-2.1,1.094,1.094,0,0,1,.044-2.1,12.614,12.614,0,0,0,6.781-5.775,22.634,22.634,0,0,0,1.99-4.4c1.553-4.506,2.012-9.384,3.215-14a31.583,31.583,0,0,1,5.971-11.812,42.267,42.267,0,0,1,6.212-6.3A48.508,48.508,0,0,1,53.7,25.86Z" transform="translate(15.067 30.705)" fill="#ffda44"/>
        <circle id="Oval" cx="4.666" cy="4.666" r="4.666" transform="translate(95.995 43.246)" fill="#c03a2b"/>
        <path id="Shape-11" data-name="Shape" d="M41.066,72.621a18.108,18.108,0,0,1-4.779-.656,2.187,2.187,0,0,1-1.448-2.931c.451-1.113.934-2.165,1.439-3.132a17.658,17.658,0,0,1,7.509-7.192,11.106,11.106,0,0,0,3.1-2.675,2.258,2.258,0,0,1,.186-.2,23.908,23.908,0,0,0,4.688-12.2,2.187,2.187,0,1,1,4.344.5,28.113,28.113,0,0,1-5.827,14.7,2.3,2.3,0,0,1-.2.219,15.243,15.243,0,0,1-4.156,3.5,13.492,13.492,0,0,0-5.753,5.383c-.048.092-.094.184-.14.276.348.028.7.042,1.048.042,10.856,0,19.686-12.757,19.686-28.436S51.922,11.375,41.066,11.375,21.38,24.131,21.38,39.81a36.19,36.19,0,0,0,5.129,19.052,45.774,45.774,0,0,1,4.655-4.418,2.187,2.187,0,1,1,2.789,3.369,40.205,40.205,0,0,0-5.893,5.971,2.188,2.188,0,0,1-1.715.831,2.557,2.557,0,0,1-1.721-.836A38.832,38.832,0,0,1,17.005,39.81C17.005,21.719,27.8,7,41.066,7S65.127,21.719,65.127,39.81,54.332,72.621,41.066,72.621Z" transform="translate(20.18 8.312)"/>
        <path id="Shape-12" data-name="Shape" d="M43.841,54.878A2.187,2.187,0,0,1,42.3,51.123,23.911,23.911,0,0,0,47.006,38.9a28.732,28.732,0,0,0,.247-3.841c0-12.2-6.37-19.686-10.937-19.686s-10.937,7.49-10.937,19.686A26.452,26.452,0,0,0,29.6,50.123a2.189,2.189,0,1,1-3.585,2.511A30.822,30.822,0,0,1,21,35.061C21,20.668,28.921,11,36.316,11s15.311,9.668,15.311,24.061a32.689,32.689,0,0,1-.282,4.375,28.071,28.071,0,0,1-5.823,14.655A2.187,2.187,0,0,1,43.841,54.878Z" transform="translate(24.93 13.061)"/>
        <path id="Shape-13" data-name="Shape" d="M75.549,11.375H28.827a2.187,2.187,0,1,1,0-4.375H75.549a2.187,2.187,0,0,1,0,4.375Z" transform="translate(31.631 8.312)"/>
        <path id="Shape-14" data-name="Shape" d="M75.122,39.375H29.187a2.187,2.187,0,1,1,0-4.375H75.122a2.187,2.187,0,0,1,0,4.375Z" transform="translate(32.059 41.558)"/>
        <path id="Shape-15" data-name="Shape" d="M50.187,72.621a2.187,2.187,0,0,1,0-4.375c10.856,0,19.686-12.757,19.686-28.436s-8.83-28.436-19.686-28.436a2.187,2.187,0,0,1,0-4.375C63.454,7,74.248,21.719,74.248,39.81S63.454,72.621,50.187,72.621Z" transform="translate(56.993 8.312)"/>
        <path id="Shape-16" data-name="Shape" d="M68.9,45.935a2.187,2.187,0,0,1-2.187-2.1A69.965,69.965,0,0,0,61.218,18.4C57.239,9.482,51.707,4.375,46.02,4.375S34.8,9.482,30.824,18.391a2.187,2.187,0,0,1-3.994-1.785C31.542,6.052,38.537,0,46.02,0S60.5,6.052,65.21,16.606a74.266,74.266,0,0,1,5.875,27.049,2.187,2.187,0,0,1-2.1,2.279Z" transform="translate(31.631 0)"/>
        <path id="Shape-17" data-name="Shape" d="M49.562,32.124a6.562,6.562,0,1,1,6.562-6.562A6.562,6.562,0,0,1,49.562,32.124Zm0-8.749a2.187,2.187,0,1,0,2.187,2.187A2.187,2.187,0,0,0,49.562,23.375Z" transform="translate(51.056 22.56)"/>
        <path id="Shape-18" data-name="Shape" d="M45.935,80.069C19.747,80.069,0,72.076,0,61.476,0,50.78,18.671,44.587,37.185,43.2a2.187,2.187,0,0,1,.33,4.362C16.766,49.12,4.375,55.861,4.375,61.476c0,6.724,17.061,14.218,41.56,14.218s41.56-7.494,41.56-14.218c0-5.72-13.214-12.7-34.56-14A2.191,2.191,0,0,1,53.2,43.1c22.768,1.4,38.67,8.948,38.67,18.374C91.869,72.076,72.122,80.069,45.935,80.069Z" transform="translate(0 51.173)"/>
        <path id="Shape-19" data-name="Shape" d="M31.525,70.307a2.183,2.183,0,0,1-.691-.112,11.114,11.114,0,0,1-7.048-7.752,32.519,32.519,0,0,1,.479-14.5l.188-1.006a55.413,55.413,0,0,1,3.032-10.83,2.188,2.188,0,1,1,4.055,1.645,51.371,51.371,0,0,0-2.787,9.981l-.19,1.015a28.871,28.871,0,0,0-.558,12.54,6.84,6.84,0,0,0,4.211,4.758,2.187,2.187,0,0,1-.691,4.263Z" transform="translate(27.533 41.248)"/>
        <path id="Shape-20" data-name="Shape" d="M32.633,33.435h-.022a2.187,2.187,0,1,1,.022,0Z" transform="translate(36.137 34.505)"/>
        <path id="Shape-21" data-name="Shape" d="M13.418,80.8a13.243,13.243,0,0,1-1.463-.079,2.187,2.187,0,0,1-1.942-2.406,2.161,2.161,0,0,1,2.406-1.942,9.526,9.526,0,0,0,9.174-5.173,20.417,20.417,0,0,0,1.8-3.977A57.781,57.781,0,0,0,25.311,59.2c.365-1.918.744-3.9,1.249-5.84a33.872,33.872,0,0,1,6.376-12.623,44.369,44.369,0,0,1,6.531-6.621,54.247,54.247,0,0,1,18.253-8.76c1.179-.383,2.3-.746,3.349-1.113a2.188,2.188,0,1,1,1.448,4.13c-1.076.376-2.235.752-3.449,1.144A50.785,50.785,0,0,0,42.239,37.5a40.221,40.221,0,0,0-5.875,5.958,29.566,29.566,0,0,0-5.569,11.007c-.47,1.8-.818,3.624-1.186,5.558a62.029,62.029,0,0,1-2.078,8.6,24.978,24.978,0,0,1-2.176,4.8A13.78,13.78,0,0,1,13.418,80.8Z" transform="translate(11.874 28.638)"/>
        <path id="Shape-22" data-name="Shape" d="M31.866,61.192c-15.056,0-23.4-4.893-23.816-5.136A2.187,2.187,0,0,1,10.3,52.3c.1.061,10.657,6.146,29.262,4.079a2.188,2.188,0,1,1,.481,4.348A73.852,73.852,0,0,1,31.866,61.192Z" transform="translate(8.322 61.749)"/>
      </g>
    </g>
  </g>
</svg>
