<svg id="Capa_1" enable-background="new 0 0 512 512" height="512" viewBox="0 0 512 512" width="512" xmlns="http://www.w3.org/2000/svg"><g><path d="m384 7v185.005l-17.771 10.302h-217.625l-20.604-10.302v-185.005c0-3.866 3.134-7 7-7h242c3.866 0 7 3.134 7 7z" fill="#f9e487"/><path d="m383.999 256-16.739 10.302h-218.656l-20.603-10.302v-63.999h255.998z" fill="#f0f6ff"/><g><path d="m160.001 231.819c-4.266 0-7.724-3.457-7.726-7.723-.002-4.267 3.456-7.728 7.722-7.73l191.998-.092h.004c4.266 0 7.724 3.457 7.726 7.723.002 4.267-3.456 7.728-7.722 7.73l-191.998.092c-.001 0-.003 0-.004 0z" fill="#dfe9f7"/></g><g><g><path d="m167.724 0v128.278c0 4.265-3.451 7.726-7.726 7.726-4.265 0-7.726-3.462-7.726-7.726v-128.278z" fill="#fca62f"/></g><g><path d="m231.729 0v128.278c0 4.265-3.461 7.726-7.726 7.726-4.275 0-7.726-3.462-7.726-7.726v-128.278z" fill="#fca62f"/></g><g><path d="m295.724 0v128.278c0 4.265-3.451 7.726-7.726 7.726-4.265 0-7.726-3.462-7.726-7.726v-128.278z" fill="#fca62f"/></g><g><path d="m359.729 0v128.278c0 4.265-3.461 7.726-7.726 7.726-4.275 0-7.726-3.462-7.726-7.726v-128.278z" fill="#fca62f"/></g><g><path d="m199.732 0v64.16c0 4.265-3.461 7.726-7.726 7.726-4.275 0-7.726-3.462-7.726-7.726v-64.16z" fill="#fca62f"/></g><g><path d="m263.726 0v64.16c0 4.265-3.461 7.726-7.726 7.726s-7.726-3.462-7.726-7.726v-64.16z" fill="#fca62f"/></g><g><path d="m327.721 0v64.16c0 4.265-3.451 7.726-7.726 7.726-4.265 0-7.726-3.462-7.726-7.726v-64.16z" fill="#fca62f"/></g></g><path d="m159.27 0c-3.87 0-7 3.13-7 7v195.31h-3.67l-20.6-10.3v-185.01c0-3.87 3.13-7 7-7z" fill="#f9bf6c"/><path d="m152.27 192v74.3h-3.67l-20.6-10.3v-64z" fill="#dfe9f7"/><path d="m272.15 464c0 8.92-7.23 16.15-16.15 16.15s-16.15-7.23-16.15-16.15 7.23-16.16 16.15-16.16 16.15 7.24 16.15 16.16z" fill="#f9e487"/><path d="m128 256c0 26.51 17.19 48 38.4 48h15.7c23.1 0 40.97 25.3 38.1 53.95l-9.05 90.54c-3.37 33.72 17.66 63.51 44.85 63.51 3.55 0 6.99-.51 10.28-1.47 21.98-6.37 37.5-32.72 34.57-62.04l-9.05-90.54c-2.87-28.65 15-53.95 38.1-53.95h15.7c21.21 0 38.4-21.49 38.4-48zm128 224.15c-8.92 0-16.15-7.23-16.15-16.15s7.23-16.16 16.15-16.16 16.15 7.24 16.15 16.16-7.23 16.15-16.15 16.15z" fill="#555e84"/><path d="m128 256c0 20.27 10.05 37.61 24.27 44.64v-44.64z" fill="#4d5375"/></g></svg>