<svg xmlns="http://www.w3.org/2000/svg" width="272.316" height="272.316" viewBox="0 0 272.316 272.316">
  <g id="Paint-Roller-Search" transform="translate(-876 -206.449)">
    <g id="Group_6" data-name="Group 6" transform="translate(17.923 -225.541)">
      <path id="Path_1" data-name="Path 1" d="M175.265,175.817h11.806v47.222a3.936,3.936,0,0,1-3.935,3.935H179.2a3.936,3.936,0,0,1-3.935-3.935Z" transform="translate(784.909 374.691)" fill="#2d2d30"/>
      <path id="Path_2" data-name="Path 2" d="M193.266,86.635v23.611h-64.93v5.9a3.935,3.935,0,0,1-7.87,0v21.643a3.935,3.935,0,1,1-7.87,0v-11.8a3.935,3.935,0,0,1-7.871,0V110.245h-5.9V86.635Z" transform="translate(814.13 408.782)" fill="#ffda44"/>
      <path id="Path_4" data-name="Path 4" d="M251.708,96.19h5.9V108h-5.9Z" transform="translate(755.687 405.13)" fill="#c6c5ca"/>
      <path id="Path_5" data-name="Path 5" d="M178.45,166.262h7.871v5.9H178.45Z" transform="translate(783.691 378.344)" fill="#c6c5ca"/>
      <path id="Path_6" data-name="Path 6" d="M200.2,95.255h-3.935V91.32a1.968,1.968,0,0,0-1.967-1.968h-3.935V85.417A1.968,1.968,0,0,0,188.4,83.45H93.953a1.968,1.968,0,0,0-1.968,1.968v3.935H88.05a1.968,1.968,0,0,0-1.968,1.968v11.806a1.968,1.968,0,0,0,1.968,1.967h3.935v3.935A1.968,1.968,0,0,0,93.953,111h3.935v13.773a5.9,5.9,0,0,0,7.87,5.565v6.24a5.9,5.9,0,0,0,11.806,0V120.5a5.9,5.9,0,0,0,7.87-5.566V111H188.4a1.968,1.968,0,0,0,1.967-1.967v-3.935H194.3a1.968,1.968,0,0,0,1.967-1.967V99.19H200.2a3.941,3.941,0,0,1,3.935,3.936v15.74A3.941,3.941,0,0,1,200.2,122.8H147.077a1.967,1.967,0,0,0-1.968,1.967v7.87h-1.967a1.968,1.968,0,0,0-1.967,1.967v3.935a1.968,1.968,0,0,0-1.967,1.967V187.73a5.911,5.911,0,0,0,5.9,5.9h3.936a5.911,5.911,0,0,0,5.9-5.9V140.508a1.968,1.968,0,0,0-1.967-1.967v-3.935a1.968,1.968,0,0,0-1.967-1.967h-1.967v-5.9H200.2a7.88,7.88,0,0,0,7.871-7.871v-15.74a7.88,7.88,0,0,0-7.871-7.871Zm-108.215,5.9H90.018v-7.87h1.968Zm94.442,5.9H123.466a1.968,1.968,0,0,0-1.967,1.967v5.9a1.967,1.967,0,0,1-3.935,0,1.967,1.967,0,0,0-3.935,0v21.643a1.967,1.967,0,0,1-3.935,0v-11.8a1.968,1.968,0,1,0-3.936,0,1.967,1.967,0,0,1-3.935,0V109.028a1.968,1.968,0,0,0-1.967-1.967H95.92V87.385h90.507Zm5.9-5.9h-1.967v-7.87h1.967Zm-47.222,35.416h3.936v1.967h-3.936Zm5.9,5.9V187.73a1.97,1.97,0,0,1-1.967,1.967h-3.936a1.97,1.97,0,0,1-1.967-1.967V142.476Z" transform="translate(819 410)"/>
      <path id="Path_7" data-name="Path 7" d="M119.9,121.671a1.968,1.968,0,0,0-1.968,1.967v9.837a1.968,1.968,0,0,0,3.936,0v-9.837a1.968,1.968,0,0,0-1.967-1.967Z" transform="translate(806.825 395.389)"/>
      <path id="Path_8" data-name="Path 8" d="M132.641,118.486a1.967,1.967,0,0,0-1.967,1.967v1.967a1.967,1.967,0,0,0,3.935,0v-1.967a1.967,1.967,0,0,0-1.967-1.967Z" transform="translate(801.954 396.607)"/>
      <path id="Path_3" data-name="Path 3" d="M89.268,96.19h5.9V108h-5.9Z" transform="translate(817.782 405.13)" fill="#c6c5ca"/>
    </g>
    <g id="search" transform="translate(876 206.449)">
      <g id="Group_7" data-name="Group 7" transform="translate(0 0)">
        <path id="Path_13" data-name="Path 13" d="M270.654,262.631,187.8,179.773a108.2,108.2,0,1,0-8.022,8.023l82.857,82.857a5.673,5.673,0,1,0,8.022-8.022ZM107.792,204.237a96.445,96.445,0,1,1,96.445-96.445A96.556,96.556,0,0,1,107.792,204.237Z" transform="translate(0 0)"/>
      </g>
    </g>
  </g>
</svg>
