<svg xmlns="http://www.w3.org/2000/svg" width="272.316" height="272.316" viewBox="0 0 272.316 272.316">
  <g id="Spilled-Bucket-Search" transform="translate(-1477.757 -555.515)">
    <g id="search" transform="translate(1477.757 555.515)">
      <g id="Group_7" data-name="Group 7" transform="translate(0 0)">
        <path id="Path_13" data-name="Path 13" d="M270.654,262.631,187.8,179.773a108.2,108.2,0,1,0-8.022,8.023l82.857,82.857a5.673,5.673,0,1,0,8.022-8.022ZM107.792,204.237a96.445,96.445,0,1,1,96.445-96.445A96.556,96.556,0,0,1,107.792,204.237Z" transform="translate(0 0)"/>
      </g>
    </g>
    <g id="paint-bucket-spill" transform="translate(1521.287 597.933)">
      <path id="Path_27" data-name="Path 27" d="M294.215,156.953h10.7a14.988,14.988,0,0,1,14.987,14.987v29.973a4.282,4.282,0,1,1-8.564,0V174.082a8.564,8.564,0,0,0-8.565-8.565Zm0,0" transform="translate(-193.59 -102.973)" fill="#ffda44"/>
      <path id="Path_28" data-name="Path 28" d="M347.64,325.969l-4.085,6.81a4.766,4.766,0,1,0,8.171,0Zm0,0" transform="translate(-225.605 -214.183)" fill="#fcbc22"/>
      <path id="Path_29" data-name="Path 29" d="M6.258,116.413l47.1-47.1,55.665,55.665-47.1,47.1Zm0,0" transform="translate(-4.117 -45.306)" fill="#e6e6e6"/>
      <path id="Path_30" data-name="Path 30" d="M131.457,44.443l6.423-6.423,64.227,64.227-6.423,6.423Zm0,0" transform="translate(-86.497 -24.716)" fill="#f2f2f2"/>
      <path id="Path_31" data-name="Path 31" d="M224.681,89.561a2.135,2.135,0,0,1-1.514-.628L169.645,35.41a2.141,2.141,0,0,1,3.027-3.027L226.2,85.906a2.142,2.142,0,0,1-1.514,3.655Zm0,0" transform="translate(-111.211 -20.594)" fill="#f2f2f2"/>
      <path id="Path_32" data-name="Path 32" d="M150.234,205.379l17.129-17.129,25.692,25.692-17.129,17.129Zm0,0" transform="translate(-98.852 -123.566)" fill="#ffda44"/>
      <path id="Path_33" data-name="Path 33" d="M39.7,139.2a2.142,2.142,0,0,1-1.515-3.655l34.256-34.254a2.141,2.141,0,0,1,3.027,3.027L41.212,138.575A2.137,2.137,0,0,1,39.7,139.2Zm0,0" transform="translate(-24.712 -65.954)" fill="#f2f2f2"/>
      <path id="Path_34" data-name="Path 34" d="M208.716,58.262a2.141,2.141,0,0,1-2.142-2.14V2.6a2.141,2.141,0,0,1,4.282,0V56.121a2.14,2.14,0,0,1-2.14,2.142Zm0,0" transform="translate(-135.923 0)" fill="#999"/>
      <path id="Path_35" data-name="Path 35" d="M56.292,128.286a2.14,2.14,0,0,0,3.027,0l36.4-36.4,9.19-9.192,2.768,2.768a2.14,2.14,0,0,0,3.027,0l4.91-4.908V98.94a6.423,6.423,0,1,0,12.845,0V68.967A17.146,17.146,0,0,0,111.329,51.84h-9.818L74.933,25.262V2.6a2.141,2.141,0,0,0-4.282,0V20.981l-9.19-9.192a2.141,2.141,0,0,0-3.081,2.975l.053.052L70.651,27.035v2.509L52.9,11.789a2.142,2.142,0,0,0-3.027,0l-6.422,6.423a2.14,2.14,0,0,0,0,3.027l2.768,2.768L.628,69.594a2.142,2.142,0,0,0,0,3.027Zm20.782-23.81L54.41,81.813l14.1-14.1L91.175,90.376Zm32.114-23.549L74.933,46.671V39.881l37.651,37.651Zm2.14-24.805a12.858,12.858,0,0,1,12.845,12.845V98.94a2.14,2.14,0,1,1-4.28,0V71.109a10.72,10.72,0,0,0-9.778-10.665l-4.323-4.322Zm-36.4-24.805L99.11,55.494l8.565,8.564,4.282,4.282a2.14,2.14,0,0,0,3.007.013,6.316,6.316,0,0,1,.647,2.756V74.5L74.933,33.826ZM51.383,16.33,70.651,35.6V42.39L47.988,19.726Zm-2.14,10.705L70.651,48.444v7.678a2.141,2.141,0,0,0,4.282,0v-3.4l26.945,26.945L94.2,87.349,70.023,63.172a2.14,2.14,0,0,0-3.027,0L49.869,80.3a2.142,2.142,0,0,0,0,3.027L74.046,107.5l-16.24,16.241L5.169,71.108Zm0,0"/>
      <path id="Path_36" data-name="Path 36" d="M345.361,320.886a2.222,2.222,0,0,0-3.669,0L337.6,327.7a6.905,6.905,0,1,0,11.845,0Zm-.378,12.546a2.625,2.625,0,0,1-3.706-3.532l2.25-3.749,2.25,3.759A2.62,2.62,0,0,1,344.983,333.432Zm0,0" transform="translate(-221.493 -210.203)"/>
      <path id="Path_37" data-name="Path 37" d="M75.417,101.242a2.14,2.14,0,0,0-3.027,0L38.134,135.5a2.141,2.141,0,0,0,2.975,3.081l.052-.053L75.417,104.27A2.142,2.142,0,0,0,75.417,101.242Zm0,0" transform="translate(-24.661 -65.903)"/>
    </g>
  </g>
</svg>
